<?xml version="1.0" encoding="UTF-8"?>
<svg id="Layer_1" data-name="Layer 1" xmlns="http://www.w3.org/2000/svg" viewBox="0 0 49.28 8.9">
  <defs>
    <style>
      .cls-1 {
        fill: #c32126;
      }

      .cls-1, .cls-2 {
        stroke-width: 0px;
      }

      .cls-2 {
        fill: #fff;
      }
    </style>
  </defs>
  <path class="cls-1" d="M0,.36h3.84c1.07,0,1.88.29,2.45.85.48.48.72,1.12.72,1.92v.02c0,1.36-.73,2.21-1.8,2.6l2.05,3h-2.16l-1.8-2.69h-1.45v2.69H0V.36ZM3.72,4.44c.91,0,1.42-.47,1.42-1.19v-.02c0-.8-.54-1.2-1.45-1.2h-1.83v2.41h1.87Z"/>
  <path class="cls-1" d="M8.05,5.58v-.02c0-1.83,1.31-3.35,3.18-3.35,2.15,0,3.13,1.67,3.13,3.49,0,.14-.01.3-.02.48h-4.47c.18.83.76,1.26,1.57,1.26.61,0,1.04-.19,1.56-.66l1.04.92c-.61.76-1.46,1.2-2.63,1.2-1.93,0-3.36-1.36-3.36-3.32ZM12.59,5.04c-.11-.82-.59-1.37-1.35-1.37s-1.25.54-1.39,1.37h2.75Z"/>
  <path class="cls-1" d="M15.43,5.55v-.02c0-2.15,1.4-3.32,2.93-3.32.97,0,1.57.44,2,.96V0h1.82v8.76h-1.82v-.92c-.44.61-1.04,1.04-2,1.04-1.5,0-2.93-1.18-2.93-3.32ZM20.39,5.55v-.02c0-1.07-.71-1.78-1.56-1.78s-1.57.7-1.57,1.78v.02c0,1.07.72,1.77,1.57,1.77s1.56-.71,1.56-1.77Z"/>
  <path class="cls-2" d="M24.01.36h3.43c2,0,3.21,1.18,3.21,2.9v.02c0,1.96-1.51,2.95-3.39,2.95h-1.4v2.52h-1.85V.36ZM27.32,4.59c.92,0,1.46-.55,1.46-1.27v-.02c0-.83-.58-1.27-1.5-1.27h-1.43v2.57h1.46Z"/>
  <path class="cls-2" d="M31.46,5.58v-.02c0-1.85,1.49-3.35,3.49-3.35s3.47,1.46,3.47,3.32v.02c0,1.85-1.49,3.35-3.49,3.35s-3.47-1.46-3.47-3.32ZM36.62,5.58v-.02c0-.95-.68-1.77-1.69-1.77s-1.67.79-1.67,1.75v.02c0,.95.68,1.77,1.69,1.77s1.67-.79,1.67-1.75Z"/>
  <path class="cls-2" d="M39.24,7.9l.78-1.2c.71.52,1.42.77,2.03.77.53,0,.77-.19.77-.48v-.02c0-.4-.62-.52-1.33-.74-.9-.25-1.92-.68-1.92-1.93v-.02c0-1.31,1.06-2.04,2.35-2.04.82,0,1.69.28,2.4.74l-.7,1.26c-.64-.37-1.27-.6-1.74-.6-.44,0-.67.19-.67.44v.02c0,.34.61.55,1.31.77.9.29,1.94.73,1.94,1.91v.02c0,1.43-1.07,2.08-2.46,2.08-.91,0-1.9-.3-2.76-.97Z"/>
  <path class="cls-2" d="M45.95,6.93v-3.05h-.77v-1.56h.77V.68h1.82v1.64h1.51v1.56h-1.51v2.75c0,.42.19.62.59.62.32,0,.62-.07.9-.23v1.46c-.38.23-.83.37-1.44.37-1.1,0-1.87-.44-1.87-1.93Z"/>
</svg>